<svg width="199" height="156" viewBox="0 0 199 156" fill="none" xmlns="http://www.w3.org/2000/svg">
<path d="M126.79 153.704C79.0572 161.924 54.4255 145.47 54.3002 144.98C52.964 144.195 51.6152 143.419 50.3503 142.529C48.3376 141.111 46.3764 139.619 44.42 138.124C43.4557 137.387 42.5133 136.612 41.6322 135.779C40.9989 135.181 40.5315 134.409 39.9058 133.801C38.4692 132.406 36.9246 131.118 35.5263 129.687C33.0152 127.117 30.5434 124.506 28.1234 121.85C26.1684 119.704 24.2851 117.491 22.4242 115.263C21.1308 113.714 19.9275 112.091 18.6875 110.498C17.6551 109.172 16.5351 107.902 15.6225 106.498C14.5437 104.839 13.6002 103.086 12.6824 101.329C11.7378 99.5209 10.8138 97.6936 10.0283 95.8132C9.08817 93.5622 7.82948 91.4213 7.72897 88.8625C7.64742 86.7862 7.28772 84.7219 7.16731 82.6456C7.02576 80.2048 7.31726 77.7822 7.75334 75.3792C8.12985 73.3046 8.66876 71.2647 9.69135 69.4185C10.7696 67.4716 11.9399 65.5669 13.1932 63.7274C14.698 61.5188 16.4955 59.5697 18.6856 57.9795C20.7301 56.4951 22.9573 55.3805 25.2802 54.4426C27.4521 53.5658 29.6629 52.7854 31.8432 51.9287C33.0944 51.4371 34.3111 50.8586 35.5573 50.3538C37.5775 49.5356 39.6302 48.7942 41.6313 47.9328C44.7515 46.5898 47.5148 44.7386 49.7917 42.169C51.2744 40.4956 52.8855 38.9346 54.457 37.3407C56.0033 35.7723 57.5868 34.2402 59.1242 32.6632C59.7695 32.0013 60.285 31.2089 60.9542 30.5754C61.9438 29.6386 63.0055 28.7756 64.0595 27.9091C65.1017 27.0523 66.0847 26.073 67.2488 25.4252C69.823 23.9929 72.3781 22.5065 75.2512 21.6677C77.7464 20.9393 80.1762 20.0556 82.7743 19.6268C85.4579 19.1839 88.1219 18.774 90.8433 18.7772C94.3325 18.7812 97.8218 18.7685 101.311 18.785C102.169 18.7891 103.038 18.808 103.882 18.9421C106.157 19.3033 108.426 19.7051 110.689 20.1392C112.494 20.4856 114.288 20.892 116.083 21.2928L116.146 21.3069C117.454 21.5991 118.764 21.8916 120.056 22.2436C122.308 22.8568 124.551 23.5043 126.79 24.1621C129.849 25.0607 132.565 26.8196 135.667 27.6424C137.318 28.0804 138.909 28.7732 140.494 29.4301C143.214 30.5575 145.916 31.7283 148.61 32.9182C149.862 33.4717 151.037 34.2192 152.316 34.6917C154.894 35.6441 157.3 36.916 159.578 38.418C161.446 39.6498 163.191 41.0653 165.042 42.3248C167.628 44.085 170.086 45.9846 172.046 48.4436C173.45 50.2043 174.925 51.9314 176.12 53.8294C177.807 56.511 179.353 59.2919 180.797 62.1134C182.146 64.751 183.312 67.4845 184.503 70.1998C185.285 71.98 186.063 73.7719 186.672 75.6147C187.381 77.7608 187.845 79.9866 188.526 82.1433C189.07 83.8679 189.27 85.6146 189.25 87.401C189.245 87.8819 189.119 88.3613 189.112 88.8422C189.052 93.5316 189.019 98.2214 188.944 102.911C188.93 103.747 188.781 104.586 188.649 105.416C188.418 106.869 188.164 108.318 187.898 109.765C187.677 110.973 187.524 112.204 187.168 113.373C186.145 116.73 184.83 119.977 183.08 123.03C181.927 125.039 180.731 127.025 179.505 128.991C179.124 129.603 178.575 130.111 178.112 130.674C177.175 131.813 176.447 132.797 175.299 134.089C161.735 149.35 142.531 150.993 126.79 153.704Z" fill="white"/>
<path d="M193.703 110.984C194.675 108.701 195.437 106.437 195.83 104.042C196.141 102.139 196.653 100.269 197.001 98.3706C197.188 97.3505 197.184 96.2972 197.325 95.2668C197.567 93.4949 197.854 91.7291 198.122 89.9609C198.255 89.0889 198.429 88.2211 198.516 87.3447C198.831 84.1584 199.081 80.9677 198.976 77.7605C198.92 76.0691 198.984 74.3651 198.796 72.6888C198.559 70.5664 198.104 68.469 197.776 66.3558C197.544 64.865 197.421 63.3564 197.155 61.8724C196.706 59.3588 195.936 56.9412 194.637 54.7245C194.066 53.7503 193.418 52.8208 192.798 51.876C192.378 51.2377 191.065 50.6793 190.499 50.7998C189.722 50.9653 189.442 51.5357 189.511 52.1667C189.646 53.387 189.848 54.6136 190.172 55.7967C190.842 58.2426 191.695 60.6407 192.31 63.099C192.758 64.8916 192.956 66.7475 193.248 68.5778C193.61 70.8363 193.963 73.0962 194.299 75.3584C194.389 75.9582 194.426 76.5679 194.452 77.1746C194.514 78.6566 194.55 80.1398 194.609 81.622C194.647 82.6039 194.784 83.5884 194.742 84.5658C194.638 86.936 194.475 89.3041 194.298 91.6703C194.184 93.2142 194.035 94.7571 193.844 96.2934C193.691 97.5192 193.45 98.734 193.251 99.9542C193.048 101.199 192.895 102.454 192.635 103.686C192.398 104.803 192.078 105.905 191.738 106.996C190.853 109.836 189.957 112.672 189.027 115.497C188.331 117.611 187.57 119.705 186.85 121.812C186.532 122.739 186.731 123.281 187.446 123.284C188.016 123.287 188.477 122.925 188.729 122.383C188.944 121.922 189.123 121.443 189.336 120.981C190.336 118.813 191.364 116.658 192.338 114.48C192.839 113.36 193.251 112.201 193.703 110.984Z" fill="white"/>
<path d="M19.2296 33.1792C21.2556 33.6804 23.1936 34.2395 25.161 34.663C26.562 34.9646 28.0281 35.35 29.4187 35.2163C31.141 35.0507 32.9685 35.5731 34.5907 34.6708C35.6583 34.077 36.7021 33.4233 37.6873 32.7022C39.5273 31.3555 40.7383 29.4945 41.7322 27.481C42.8027 25.3125 43.4778 23.0132 43.9212 20.6474C44.0895 19.7496 44.2608 18.8204 44.2036 17.9199C44.1177 16.5677 43.8512 15.2249 43.6261 13.884C43.3466 12.2195 42.757 10.654 42.0541 9.12364C41.088 7.01999 39.3557 5.63498 37.5449 4.34446C35.4252 2.83378 33.1092 1.65002 30.6172 0.913337C29.1454 0.478244 27.5843 0.321596 26.0533 0.113512C23.0933 -0.288799 20.226 0.454845 17.417 1.14628C13.3914 2.13717 11.085 5.084 9.92371 8.89506C9.28773 10.9822 8.97058 13.1679 8.54166 15.3155C8.30455 16.5029 8.03258 17.6977 7.96434 18.8999C7.90887 19.8767 8.06088 20.8834 8.24937 21.852C8.6183 23.7475 9.42632 25.4766 10.49 27.0847C11.3578 28.3966 12.6009 29.3348 13.7911 30.3188C15.3815 31.6336 17.2585 32.4272 19.2296 33.1792Z" fill="white"/>
<path d="M11.8377 47.6539C12.3189 47.0232 12.8442 46.4714 13.1744 45.821C13.3611 45.4531 13.3568 44.8754 13.2095 44.4766C12.9484 43.77 12.2033 43.8108 11.6623 43.9675C11.0969 44.1312 10.5429 44.495 10.1022 44.8996C7.7562 47.054 5.69113 49.4727 3.94138 52.1198C2.46115 54.3593 1.30394 56.7958 0.892441 59.4912C0.623718 61.2514 0.387207 63.0257 0.296722 64.8018C0.128052 68.1132 -0.00259399 71.4306 3.05176e-05 74.7455C0.0022583 77.5602 0.478027 80.3205 1.63007 82.9286C2.00964 83.788 3.28236 84.8966 4.34738 84.8349C5.18474 84.7865 6.00067 84.1791 5.9789 83.3495C5.94722 82.1435 5.80356 80.9362 5.63834 79.7389C5.44695 78.352 5.16125 76.9782 4.95238 75.5933C4.77351 74.4075 4.54033 73.2159 4.51828 72.0234C4.48169 70.042 4.47653 68.0455 4.67969 66.0782C4.87068 64.2282 5.30034 62.3969 5.7121 60.577C6.19974 58.4217 6.70818 56.2528 7.81996 54.314C9.10083 52.0803 10.4695 49.8968 11.8377 47.6539Z" fill="white"/>
<path d="M179.948 39.6859C180.563 40.3825 181.166 41.021 181.713 41.7044C183.065 43.3945 184.387 45.1083 185.73 46.8056C186.123 47.3016 186.662 47.6145 187.26 47.3154C187.853 47.0186 187.771 46.3639 187.739 45.8031C187.664 44.5063 187.002 43.4249 186.28 42.4294C184.767 40.3401 183.173 38.3005 181.287 36.525C179.315 34.6691 177.241 32.9386 174.971 31.4375C173.75 30.6295 172.575 29.7721 171.099 29.5147C170.773 29.4579 170.191 29.4829 170.12 29.6437C169.979 29.9619 169.97 30.5035 170.161 30.7694C170.578 31.3482 171.131 31.8392 171.672 32.3166C172.617 33.1502 173.617 33.9228 174.555 34.7635C176.354 36.376 178.127 38.0184 179.948 39.6859Z" fill="white"/>
</svg>
