<svg width="175" height="40" viewBox="0 0 175 40" fill="none" xmlns="http://www.w3.org/2000/svg">
<path d="M19.1822 12.8189H13.5768L9.6093 23.5453L5.56903 12.8189H0L7.42537 30.4332H11.7932L19.1822 12.8189Z" fill="#1D1D24"/>
<path d="M36.2464 20.8548C36.2464 16.1552 32.461 12.4601 27.6199 12.4601C22.4149 12.4601 18.3382 16.4063 18.3382 21.5364C18.3382 26.774 22.4877 30.792 27.7291 30.792C31.4418 30.792 34.4265 29.4287 35.7369 27.0969L31.733 24.6933C31.1142 25.7696 29.4399 26.487 27.8383 26.487C25.3996 26.487 23.7252 25.2314 23.252 22.8278H36.1008C36.21 22.1462 36.2464 21.4646 36.2464 20.8548ZM23.3248 19.5991C23.798 17.6978 25.2176 16.5498 27.3651 16.5498C29.2579 16.5498 30.8958 17.8413 31.1142 19.5991H23.3248Z" fill="#1D1D24"/>
<path d="M43.3371 5.32112H38.2049V30.4332H43.3371V5.32112Z" fill="#1D1D24"/>
<path d="M54.4143 12.4601C49.1365 12.4601 45.1326 16.4063 45.1326 21.644C45.1326 26.8817 49.1365 30.792 54.4143 30.792C59.6557 30.792 63.696 26.8817 63.696 21.644C63.696 16.4063 59.6557 12.4601 54.4143 12.4601ZM54.4143 17.3032C56.8166 17.3032 58.673 19.1328 58.673 21.644C58.673 24.0835 56.8166 25.9489 54.4143 25.9489C51.9756 25.9489 50.1556 24.0835 50.1556 21.644C50.1556 19.1328 51.9756 17.3032 54.4143 17.3032Z" fill="#1D1D24"/>
<path d="M82.5316 25.7337L77.9817 23.7247C77.2901 25.1238 75.8706 25.9489 74.1234 25.9489C71.5755 25.9489 69.7556 24.0835 69.7556 21.644C69.7556 19.1687 71.5755 17.3032 74.1234 17.3032C75.6886 17.3032 76.9989 18.0565 77.6541 19.2404L81.9856 16.8009C80.566 14.1821 77.6177 12.4601 74.1234 12.4601C68.7728 12.4601 64.7325 16.4063 64.7325 21.644C64.7325 26.8817 68.7728 30.792 74.1234 30.792C77.9453 30.792 81.1848 28.783 82.5316 25.7337Z" fill="#1D1D24"/>
<path d="M86.685 4.28076C84.9743 4.28076 83.5547 5.67986 83.5547 7.33009C83.5547 9.01619 84.9743 10.4153 86.685 10.4153C88.3958 10.4153 89.8153 9.01619 89.8153 7.33009C89.8153 5.67986 88.3958 4.28076 86.685 4.28076ZM84.1371 12.8189V30.4332H89.2693V12.8189H84.1371Z" fill="#1D1D24"/>
<path d="M103.327 25.7337C102.927 25.8772 102.235 25.9848 101.725 25.9848C100.233 25.9848 98.9591 24.9444 98.9591 23.2942V17.6261H103.363V12.8189H98.9591V8.19108H93.8269V12.8189H90.5146V17.6261H93.8269V23.5453C93.8269 28.1014 96.7752 30.7202 100.961 30.7202C101.907 30.7202 102.927 30.5409 103.582 30.218L103.327 25.7337Z" fill="#1D1D24"/>
<path d="M117.467 12.8189L113.5 23.1148L109.532 12.8189H104L110.879 28.9983L107.567 36.2808H113.063L123 12.8189H117.467Z" fill="#1D1D24"/>
<path fill-rule="evenodd" clip-rule="evenodd" d="M137.405 0C136.301 0 135.405 0.895428 135.405 2V31.5948C135.405 36.0131 138.987 39.5948 143.405 39.5948H167C171.418 39.5948 175 36.0131 175 31.5948V8C175 3.58172 171.418 0 167 0H137.405ZM145.964 15.5589C145.964 10.6583 150.133 6.59883 155.143 6.59883C160.19 6.59883 164.323 10.6583 164.323 15.5589C164.323 17.2412 163.701 19.5087 162.311 21.7396L155.582 32.5649H149.401L154.814 24.007C154.595 24.0436 154.375 24.0436 154.156 24.0436C149.475 24.0436 145.964 20.4596 145.964 15.5589ZM151.23 15.5955C151.23 17.7532 152.949 19.4721 155.18 19.4721C157.337 19.4721 159.02 17.7532 159.02 15.5955C159.02 13.4378 157.301 11.7555 155.143 11.7555C152.949 11.7555 151.23 13.4378 151.23 15.5955Z" fill="url(#paint0_linear_76_239)"/>
<defs>
<linearGradient id="paint0_linear_76_239" x1="155.203" y1="0" x2="155.203" y2="39.5948" gradientUnits="userSpaceOnUse">
<stop stop-color="#CDFFAE"/>
<stop offset="1" stop-color="#828FD6"/>
</linearGradient>
</defs>
</svg>
